<svg xmlns="http://www.w3.org/2000/svg" viewBox="0 0 24 24" fill="currentColor" class="w-16 h-16">
  <path fill-rule="evenodd" d="M12 0a12 12 0 1012 12A12 12 0 0012 0zm0 22.083A10.083 10.083 0 1110.083 12 10.094 10.094 0 0112 22.083zM12 1.917a10.083 10.083 0 100 20.167A10.083 10.083 0 1012 1.917zm0 15.166a5.083 5.083 0 11-5.083-5.083A5.089 5.089 0 0112 17.083zM12 5.75a6.25 6.25 0 10-6.25 6.25A6.258 6.258 0 0012 5.75zm0 4.167a2.083 2.083 0 112.083-2.083A2.086 2.086 0 0112 9.917zm0-2.917a.833.833 0 10.833-.833A.834.834 0 0012 7zM9.917 11a2.083 2.083 0 11-2.083 2.083A2.086 2.086 0 019.917 11zm0 2.917a.833.833 0 10.833-.833A.834.834 0 009.917 13.917z" clip-rule="evenodd" />
</svg>